# xmcd
#
# Track frame offsets: 
#        150
#        2071
#        27626
#        55023
#        88336
#        107077
#        130318
#        179377
#        187797
#        199809
#        224842
#        251227
#        277118
#
# Disc length: 3941 seconds
#
# Revision: 0
# Processed by: cddbd v1.5.2PL0 Copyright (c) Steve Scherf et al.
# Submitted via: ExactAudioCopyFreeDBPlugin 1.0
#
DISCID=c80f630d
DTITLE=Stevie Ray Vaughan - The Broadcast Collection 1983-'89 cd9
DYEAR=2017
DGENRE=Bluesrock
TTITLE0=KBCO Radio Talk
TTITLE1=Mary Had A Little Lamb
TTITLE2=Pride And Joy
TTITLE3=Texas Flood
TTITLE4=Tell Me
TTITLE5=Look At Little Sister
TTITLE6=Tin Pan Alley
TTITLE7=KBCO Radio Talk
TTITLE8=The House Is Rockin'
TTITLE9=Tightrope
TTITLE10=Leave My Girl Alone
TTITLE11=Wall Of Denial
TTITLE12=Crossfire
EXTD=
EXTT0=
EXTT1=
EXTT2=
EXTT3=
EXTT4=
EXTT5=
EXTT6=
EXTT7=
EXTT8=
EXTT9=
EXTT10=
EXTT11=
EXTT12=
PLAYORDER=
